<svg id="Layer_1" data-name="Layer 1" xmlns="http://www.w3.org/2000/svg" viewBox="0 0 30 30"><title>Logo_Dribble</title><path d="M21.92,0H8.08A8.19,8.19,0,0,0,0,8.08V21.92A8.19,8.19,0,0,0,8.08,30H21.92A8.19,8.19,0,0,0,30,21.92V8.08A8.19,8.19,0,0,0,21.92,0Zm6.14,21.92a6.29,6.29,0,0,1-6.14,6.14H8.08a6.29,6.29,0,0,1-6.14-6.14V8.08A6.3,6.3,0,0,1,8.08,1.93H21.92a6.3,6.3,0,0,1,6.14,6.15Z" style="fill:#b7b7b7"/><path d="M24.43,13.07A9.62,9.62,0,0,0,21.81,8.2,9.4,9.4,0,0,0,20.39,7a9.2,9.2,0,0,0-1.63-.89c-.32-.13-.65-.25-1-.35s-.55-.15-.83-.21A9.58,9.58,0,0,0,11.6,6a.93.93,0,0,0-.55.16,1.14,1.14,0,0,0-.11.11A9.21,9.21,0,0,0,9.64,7,9.57,9.57,0,0,0,7,9.62a9.24,9.24,0,0,0-.88,1.64A9.4,9.4,0,0,0,5.4,15a10.54,10.54,0,0,0,.19,1.94A9.78,9.78,0,0,0,7,20.38,10.38,10.38,0,0,0,8,21.53a1,1,0,0,0,.24.34.84.84,0,0,0,.31.19,9.61,9.61,0,0,0,10.24,1.8A9.2,9.2,0,0,0,20.39,23a9.48,9.48,0,0,0,1.43-1.17,9.74,9.74,0,0,0,2.05-3.06,8.73,8.73,0,0,0,.56-1.8,9.35,9.35,0,0,0,0-3.87Zm-1.9.39a8.67,8.67,0,0,1,.13.89,11.14,11.14,0,0,0-5.5-.22h0c-.07-.16-.15-.31-.23-.47a12.1,12.1,0,0,0,4.23-3.25,8.24,8.24,0,0,1,.93,1.6A8.09,8.09,0,0,1,22.53,13.46Zm-6-6a6.37,6.37,0,0,1,.66.16c.27.08.53.18.78.28a7.78,7.78,0,0,1,1.3.71c.18.12.34.25.51.38a10.41,10.41,0,0,1-3.75,2.92,36.13,36.13,0,0,0-2.82-4.4l.22,0A7.71,7.71,0,0,1,16.56,7.48ZM8.65,10.71a7.59,7.59,0,0,1,2.07-2.08c.21-.14.42-.27.64-.39A34.72,34.72,0,0,1,14.1,12.4a55.29,55.29,0,0,1-6.55.82A8.53,8.53,0,0,1,7.94,12,7.12,7.12,0,0,1,8.65,10.71ZM7.34,15.17a53.86,53.86,0,0,0,7.7-1l.27.53-.31.11a23.78,23.78,0,0,0-6.07,4.81c-.09-.12-.2-.22-.28-.35a7.64,7.64,0,0,1-1.16-2.74A9.1,9.1,0,0,1,7.34,15.17Zm6.13,7.35A8.09,8.09,0,0,1,12,22.08a8.2,8.2,0,0,1-1.3-.71L10.27,21a22.1,22.1,0,0,1,5.58-4.46l.11,0c.63,1.87,1.17,3.77,1.64,5.69a6.47,6.47,0,0,1-1,.3A7.66,7.66,0,0,1,13.47,22.52Zm7.91-3.23a7.61,7.61,0,0,1-2,2c-.45-1.8-1-3.57-1.55-5.33a9.26,9.26,0,0,1,4.75.38,1.25,1.25,0,0,1,0,.19h0A7.62,7.62,0,0,1,21.38,19.29Z" style="fill:#b7b7b7"/></svg>