<svg id="Layer_1" data-name="Layer 1" xmlns="http://www.w3.org/2000/svg" viewBox="0 0 30.01 30"><title>Logo_Instagram</title><g id="Instagran"><path d="M13.13,17.42a3.2,3.2,0,1,0,0-5.19,3.12,3.12,0,0,0-.72.73A3.19,3.19,0,0,0,13.13,17.42ZM15,13.59a1.25,1.25,0,0,1,0,2.5h0a1.26,1.26,0,0,1-1.27-1.26A1.28,1.28,0,0,1,15,13.59Z" style="fill:#b7b7b7"/><path d="M25.33,13.85V9.12a4.76,4.76,0,0,0-4.81-4.44h-11a4.76,4.76,0,0,0-4.8,4.44v11c0,2.32,2.22,5.16,4.8,5.16h11c2.59,0,4.81-2.84,4.81-5.16V14.24c0-.06,0-.11,0-.16A1.85,1.85,0,0,0,25.33,13.85Zm-2-5H19.85V6.61h.68A2.84,2.84,0,0,1,23.32,8.81ZM9.48,6.61h8.43V9.79a1,1,0,0,0,1,1h4.51V13.1H19.56a1,1,0,0,0-1,1,1,1,0,0,0,0,.24,2.79,2.79,0,0,0,.33.87v.16A3.72,3.72,0,0,1,15.16,19H15c-2.33,0-3.95-1.45-3.95-3.52a1.41,1.41,0,0,1,0-.2.42.42,0,0,1,0-.1,5.3,5.3,0,0,0,.28-.88,1,1,0,0,0-.71-1.17.85.85,0,0,0-.23,0H6.62v-4A2.84,2.84,0,0,1,9.48,6.61Zm11,16.78h-11c-1.31,0-2.86-1.76-2.86-3.23V15H9.15a3.4,3.4,0,0,0,0,.45c0,3.1,2.53,5.44,5.89,5.44a5.62,5.62,0,0,0,5.88-5.35c0-.08,0-.16,0-.25a1.46,1.46,0,0,0,0-.3h2.51v5.15C23.39,21.64,21.84,23.39,20.52,23.39Z" style="fill:#b7b7b7"/><path d="M30,21.83V7.44C30,3.06,26.8,0,22.2,0H7.8C3.21,0,0,3.06,0,7.44V21.83A7.92,7.92,0,0,0,7.64,30H22.2A7.92,7.92,0,0,0,30,22,.86.86,0,0,0,30,21.83Zm-7.54,6.23H7.8a5.91,5.91,0,0,1-5.87-6,2.35,2.35,0,0,1,0-.26V7.44c0-3.34,2.3-5.5,5.86-5.5H22.2c3.57,0,5.87,2.16,5.87,5.5V21.83A5.93,5.93,0,0,1,22.46,28.06Z" style="fill:#b7b7b7"/></g></svg>