<svg id="Layer_1" data-name="Layer 1" xmlns="http://www.w3.org/2000/svg" viewBox="0 0 29.99 29.99"><title>Logo_Linkedin</title><g id="Linkedin"><g id="Group_826" data-name="Group 826"><g id="Group_825" data-name="Group 825"><path id="Path_451" data-name="Path 451" d="M21.56,10.61a4.34,4.34,0,0,0-3.29-1,5.77,5.77,0,0,0-3.14,1.11l-.1.07v-.44a1,1,0,0,0-1-.94,1,1,0,0,0-.94.94v2.81a.62.62,0,0,0,0,.19v8.8a1,1,0,0,0,1,.94,1,1,0,0,0,.94-.94V13.37a5,5,0,0,1,3.22-1.86,2.86,2.86,0,0,1,1.91.45c.44.45.42,1.52.41,2.88,0,.27,0,.55,0,.85v6.79a1,1,0,1,0,1.94.06V14.87C22.54,13.13,22.56,11.63,21.56,10.61Z" style="fill:#b7b7b7"/></g></g><g id="Group_828" data-name="Group 828"><g id="Group_827" data-name="Group 827"><path id="Path_452" data-name="Path 452" d="M7.52,9.36a1,1,0,0,0-1,1V22.49a1,1,0,1,0,1.93.06.06.06,0,0,0,0-.06V10.33a1,1,0,0,0-1-1Z" style="fill:#b7b7b7"/></g></g><g id="Group_830" data-name="Group 830"><g id="Group_829" data-name="Group 829"><path id="Path_453" data-name="Path 453" d="M22.15,0h-14a8.21,8.21,0,0,0-5.7,2.26A7.64,7.64,0,0,0,0,7.85v14A8.2,8.2,0,0,0,8.11,30h14a7.63,7.63,0,0,0,5.6-2.42A8.22,8.22,0,0,0,30,21.88v-14A7.75,7.75,0,0,0,22.33,0Zm5.91,21.89a6,6,0,0,1-5.91,6.17h-14a6.25,6.25,0,0,1-6.18-6.17v-14A6,6,0,0,1,8.11,1.94h14a5.84,5.84,0,0,1,5.92,5.79V21.89Z" style="fill:#b7b7b7"/></g></g><g id="Group_832" data-name="Group 832"><g id="Group_831" data-name="Group 831"><path id="Path_454" data-name="Path 454" d="M7.51,6.65a1.1,1.1,0,1,0,1.1,1.11h0a1.11,1.11,0,0,0-1.09-1.1Z" style="fill:#b7b7b7"/></g></g></g></svg>