<?xml version="1.0" encoding="utf-8"?>
<!-- Generator: Adobe Illustrator 24.0.0, SVG Export Plug-In . SVG Version: 6.00 Build 0)  -->
<svg version="1.1" id="Layer_1" xmlns="http://www.w3.org/2000/svg" xmlns:xlink="http://www.w3.org/1999/xlink" x="0px" y="0px"
	 viewBox="0 0 379.5 397.6" style="enable-background:new 0 0 379.5 397.6;" xml:space="preserve">
<style type="text/css">
	.st0{fill:#B7B7B7;}
	.st1{fill:none;}
	.st2{fill:#CCCCCC;}
	.st3{opacity:0.1;}
</style>
<g class="st3">
	<path class="st2" d="M358.8,73.4c5.5-5.4,12.6-11.1,20.7-16.7v87.1c-5.2,7.6-9.8,15.5-13.3,23.4c-20.5,8.9-40.2,13-63.9,13
		c-1.9,0-2.7-0.3-4.6-0.3C307.7,138.9,329,103.2,358.8,73.4z"/>
	<path class="st2" d="M177.8,303.8c0-1.6,0-3.3-0.1-4.9c0,0.2-23.4,7.4-25.7,8.3c-8.4,3.4-16.5,7.3-24.4,11.7
		c-15.7,8.9-30.4,19.6-43.8,31.9c-15.1,13.7-28.7,29.5-39.9,46.9h78.1c12.8-11.4,27.1-21.9,42.1-28.7
		C173.5,348.1,177.8,328,177.8,303.8z"/>
	<path class="st0" d="M379.5,397.6h-31.9c-3.6-3.2-7.3-6.2-11.1-9.1c-12.3-8.8-25.8-15.9-39.9-21.1c-9.3-3.4-18.8-6.1-28.5-7.9
		c-1.8-0.3-16.9-2.8-23.7-3.2c-1.2,0.1-2.3,0.2-3.3,0.3c-0.3,1.4-0.7,2.8-1,4.2c-0.3,1.3-0.6,2.5-0.9,3.8c-3,11.4-6.9,22.4-11.8,33
		h-67.6c16.7-27.2,26.3-59.3,26.3-93.8c0-23.5-4.7-46.8-13.9-68.4c-10.2-24.2-25.4-40.4-43.5-59.1C89.7,136.2,49.8,97.1,10.3,57.7
		c-11.9-11.9-13.8-30.8-4-44.3c1-1.4,2.1-2.7,3.4-4c12.5-12.5,32.7-12.5,45.1,0C90,44.5,123.6,81,159.2,115.6
		c38.9,37.9,86.4,72.6,143,72.6c27.7,0,53.9-6.4,77.2-17.8v65.1c-8.9,2.6-25.2,7.3-25.2,7.5c0,1.2,0.1,2.4,0.2,3.7
		c1.2,22.6,6.8,44.8,16.4,65.3c2.6,5.5,5.5,10.8,8.6,15.9V397.6z M297.8,300C297.8,300,297.8,300,297.8,300
		c-4.5-16.8-7.3-34-8.1-51.4c-17.3-1.8-34.4-4.4-51.4-8h0l0,0c0,0,0,0,0,0c3.4,12.5,5.8,25.3,7.1,38.2c0,0.1,0,0.2,0,0.3
		c0.1,0.9,0.2,1.8,0.2,2.6c0.3,3.5,0.6,6.9,0.7,10.4c16.3,0.7,32.4,3.2,48.2,7.2C295.7,299.4,296.8,299.7,297.8,300
		C297.8,300,297.8,300,297.8,300z"/>
</g>
</svg>
