<?xml version="1.0" encoding="utf-8"?>
<!-- Generator: Adobe Illustrator 24.0.0, SVG Export Plug-In . SVG Version: 6.00 Build 0)  -->
<svg version="1.1" id="Layer_1" xmlns="http://www.w3.org/2000/svg" xmlns:xlink="http://www.w3.org/1999/xlink" x="0px" y="0px"
	 viewBox="0 0 107.1 16.9" style="enable-background:new 0 0 107.1 16.9;" xml:space="preserve">
<path id="Logo_Bradesco_Seguros" d="M38.8,6.4v1.5c-0.3-0.1-0.6-0.1-0.9-0.1c-1.7-0.1-3.1,1.2-3.2,2.9c0,0.1,0,0.3,0,0.4
	c-0.2,1.6,1,3.1,2.7,3.2c0.2,0,0.4,0,0.6,0c0.9,0,1.7-0.1,2.6-0.4V5c-0.5,0.2-1,0.4-1.4,0.8C38.9,5.9,38.8,6.1,38.8,6.4z M38.8,12.8
	c-0.2,0.1-0.5,0.1-0.7,0.1c-1.1,0-1.6-0.8-1.6-1.8c0-1.2,0.4-1.9,1.6-1.9c0.3,0,0.5,0,0.8,0.1L38.8,12.8L38.8,12.8z M31.1,7.7
	c-0.6,0-1.3,0.1-1.9,0.2c-0.1,0.4-0.1,0.9,0,1.4c0.5-0.1,1-0.2,1.6-0.2c0.9,0,1.3,0.4,1.3,1.1v0.1c-0.3,0-0.6-0.1-0.8-0.1
	c-1.5,0-2.7,0.5-2.7,1.9c0,1.6,1.1,2.1,2.8,2.1c0.8,0,1.6-0.1,2.4-0.4v-3.6C33.8,8.6,32.9,7.8,31.1,7.7z M32.1,12.9
	c-0.2,0-0.5,0.1-0.7,0.1c-0.8,0-1.2-0.2-1.2-0.8s0.4-0.8,1.2-0.8c0.3,0,0.6,0,0.7,0V12.9z M8.8,9.3L7.5,10v4.3h1.3
	c0.1,0,0.2-0.1,0.2-0.2V9.4C9.1,9.3,9,9.2,8.8,9.3C8.9,9.2,8.8,9.2,8.8,9.3z M6.2,10.9v3.2c0,0.1,0.1,0.1,0.1,0.1h0.9v-4.1l-0.9,0.5
	C6.2,10.7,6.2,10.8,6.2,10.9z M7.1,3.1c-0.9,0-1.9,0.1-2.8,0.2c1-1.3,2.5-2,4.2-2c1.2,0,2.4,0.4,3.3,1.2c0.2,0.1,0.3,0.1,0.4,0
	s0.1-0.2,0-0.4c-2.1-2.5-5.8-2.8-8.3-0.7C3.1,2,2.5,2.8,2.2,3.8C1.5,4,0.8,4.3,0.2,4.6C0,4.7,0,4.8,0,5c0.1,0.1,0.2,0.2,0.3,0.1
	c0.5-0.1,1-0.3,1.6-0.4c0,0.3-0.1,0.6-0.1,0.9c0,2,1,3.9,2.7,4.9c0.2,0.1,0.3,0.1,0.4,0s0.1-0.2-0.1-0.4c-1-1-1.6-2.3-1.6-3.7
	c0-0.7,0.1-1.4,0.4-2c0.5,0,1.1-0.1,1.8-0.1c4.2,0,7.8,1.4,7.8,3.2c0,0.9-1.2,1.9-2.6,2.5c-0.3,0.1-0.4,0.3-0.3,0.4s0.2,0.2,0.4,0.1
	c2.5-0.7,4.3-2,4.3-3.6C15,4.7,11.5,3.1,7.1,3.1L7.1,3.1z M20.7,7.8c-0.4,0-0.9,0.1-1.3,0.3V5c-0.5,0.2-1,0.4-1.4,0.8
	c-0.2,0.1-0.3,0.4-0.3,0.6V14c0.7,0.2,1.5,0.4,2.3,0.4c1.8,0.2,3.3-1.1,3.5-2.9c0-0.2,0-0.3,0-0.5C23.5,9,22.6,7.8,20.7,7.8
	L20.7,7.8z M20.1,12.9c-0.2,0-0.4,0-0.7-0.1V9.4c0.3-0.1,0.7-0.2,1-0.2c0.9,0,1.3,0.6,1.3,1.7C21.7,12.1,21.2,12.9,20.1,12.9z
	 M27.9,7.8c-0.7,0-1.4,0.3-1.7,0.9c0-0.3-0.1-0.6-0.2-0.8c-0.2-0.1-0.5-0.1-0.7-0.1s-0.5,0-0.7,0.1v6.3c0.3,0.1,0.6,0.1,0.9,0.1
	s0.6,0,0.9-0.1v-3.1c0-1.2,0.6-1.9,1.5-1.9c0.2,0,0.4,0,0.6,0c0.1-0.5,0.1-0.9,0-1.4C28.2,7.9,28.1,7.8,27.9,7.8L27.9,7.8z M90,8
	v5.3c-0.4,0.1-0.9,0.2-1.3,0.2c-1.2,0-1.8-0.6-1.8-2V8c-0.2,0-0.3,0-0.5-0.1C86.2,8,86,8,85.9,8v3.5c-0.2,1.4,0.8,2.6,2.2,2.8
	c0.2,0,0.4,0,0.6,0c0.8,0,1.6-0.1,2.4-0.4V8c-0.2,0-0.3,0-0.5-0.1C90.4,8,90.2,8,90,8L90,8z M95.2,8c-0.7,0-1.3,0.3-1.7,0.9
	c0-0.3,0-0.6-0.1-0.9c-0.1,0-0.3,0-0.4,0c-0.2,0-0.3,0-0.5,0.1v6.2c0.2,0,0.3,0,0.5,0.1c0.2,0,0.4,0,0.5-0.1v-3.5
	C93.4,9.9,94.1,9,95,8.9h0.1c0.2,0,0.3,0,0.5,0c0-0.1,0.1-0.3,0.1-0.5c0-0.1,0-0.3,0-0.4C95.5,8,95.4,8,95.2,8L95.2,8z M79.2,11.2
	c-0.2,1.4,0.9,2.7,2.3,2.9c0.1,0,0.2,0,0.3,0c0.5,0,1-0.1,1.5-0.3v0.5c0.1,0.9-0.5,1.7-1.4,1.8c-0.2,0-0.3,0-0.5,0
	c-0.6,0-1.3-0.1-1.9-0.4c0,0.1,0,0.3,0,0.4c0,0.1,0,0.3,0,0.4c0.6,0.3,1.3,0.4,2,0.4c1.4,0.2,2.6-0.9,2.8-2.2c0-0.2,0-0.4,0-0.5V8.3
	c-0.6-0.2-1.3-0.4-2-0.4c-1.7-0.1-3.1,1.1-3.2,2.8C79.2,10.9,79.2,11,79.2,11.2L79.2,11.2z M83.4,13c-0.4,0.2-0.9,0.3-1.3,0.3
	c-1.1,0-1.8-0.8-1.8-2.1c0-1.5,0.8-2.4,2.1-2.4c0.3,0,0.7,0,1,0.1C83.4,8.9,83.4,13,83.4,13z M105.5,10.7l-0.6-0.3
	c-0.6-0.3-0.9-0.5-0.9-0.9c0-0.6,0.6-0.8,1.2-0.8c0.5,0,1,0.1,1.5,0.3c0-0.1,0-0.3,0-0.4c0-0.1,0-0.3,0-0.4
	c-0.5-0.2-1.1-0.3-1.6-0.3c-1.1,0-2.1,0.6-2.1,1.6c0,0.8,0.3,1.3,1.5,1.8l0.5,0.2c0.7,0.3,1,0.6,1,1.1c0,0.7-0.6,0.9-1.2,0.9
	s-1.2-0.1-1.8-0.4c0,0.1-0.1,0.3-0.1,0.4c0,0.1,0,0.3,0.1,0.4c0.6,0.3,1.3,0.4,1.9,0.4c1.2,0,2.2-0.7,2.2-1.7
	C106.9,11.7,106.5,11.2,105.5,10.7L105.5,10.7z M75.8,7.9c-1.7,0-2.7,1.3-2.7,3.2c0,2,1.1,3.2,3,3.2c0.6,0,1.2-0.1,1.8-0.3
	c0.1-0.3,0.1-0.5,0-0.8c-0.6,0.2-1.1,0.3-1.7,0.3c-1.1,0-2-0.8-2-1.9c0-0.1,0-0.2,0-0.3h4.1c0-0.2,0-0.5,0-0.7
	c0.2-1.3-0.8-2.6-2.1-2.7C76,7.9,75.9,7.9,75.8,7.9L75.8,7.9z M74.1,10.6c0-1,0.7-1.8,1.7-1.8l0,0c0.9,0,1.5,0.8,1.5,1.8H74.1z
	 M99.2,7.9c-1.7,0-2.7,1.2-2.7,3.2s1,3.2,2.7,3.2s2.8-1.2,2.8-3.2C101.9,9.1,100.9,7.9,99.2,7.9L99.2,7.9z M99.2,13.5
	c-1.1,0-1.7-0.8-1.7-2.3s0.6-2.4,1.7-2.4s1.7,0.8,1.7,2.4C100.8,12.7,100.3,13.5,99.2,13.5L99.2,13.5z M61.3,7.7c-1.9,0-3,1.3-3,3.3
	s1.1,3.3,3,3.3s3-1.3,3-3.3S63.2,7.7,61.3,7.7z M61.3,12.9c-1,0-1.2-0.8-1.2-1.9s0.3-1.9,1.2-1.9c1,0,1.3,0.8,1.3,1.9
	C62.6,12.2,62.2,12.9,61.3,12.9z M51.1,10.5l-0.7-0.3C50,10,49.8,9.9,49.8,9.6c0-0.4,0.4-0.5,0.8-0.5c0.6,0,1.1,0.1,1.6,0.3
	c0.1-0.4,0.1-0.9,0-1.3c-0.6-0.2-1.2-0.4-1.9-0.3C49,7.7,48,8.5,48,9.5s0.4,1.5,1.6,1.9l0.5,0.2c0.5,0.2,0.7,0.3,0.7,0.7
	c0,0.5-0.5,0.6-0.9,0.6c-0.6,0-1.3-0.1-1.9-0.4c-0.1,0.4-0.1,0.9,0,1.3c0.7,0.3,1.4,0.4,2.2,0.4c1.3,0,2.4-0.7,2.4-1.9
	C52.6,11.5,52,10.7,51.1,10.5L51.1,10.5z M56.5,12.9c-0.9,0-1.4-0.7-1.4-1.9c0-1.1,0.5-1.9,1.4-1.9c0.4,0,0.8,0.1,1.1,0.2
	c0.1-0.4,0.3-0.8,0.6-1.2c-0.6-0.3-1.3-0.5-1.9-0.4c-1.9,0-3,1.3-3,3.3s1.1,3.3,3.1,3.3c0.7,0,1.3-0.1,1.9-0.4
	c-0.3-0.4-0.5-0.8-0.7-1.2C57.2,12.9,56.9,12.9,56.5,12.9L56.5,12.9z M70.8,10.8l-0.6-0.3c-0.6-0.3-0.9-0.5-0.9-0.9
	c0-0.6,0.6-0.8,1.2-0.8c0.5,0,1,0.1,1.5,0.3c0-0.1,0-0.3,0-0.4c0-0.1,0-0.3,0-0.4C71.5,8.1,70.9,8,70.4,8c-1.1,0-2.1,0.6-2.1,1.6
	c0,0.8,0.3,1.3,1.5,1.8l0.5,0.2c0.7,0.3,1,0.6,1,1.1c0,0.7-0.6,0.9-1.2,0.9s-1.2-0.1-1.8-0.4c0,0.1-0.1,0.3-0.1,0.4
	c0,0.1,0,0.3,0.1,0.4c0.6,0.3,1.3,0.4,1.9,0.4c1.2,0,2.2-0.7,2.2-1.7C72.2,11.7,71.7,11.2,70.8,10.8L70.8,10.8z M44.5,7.8
	c-1.9,0-3,1.2-3,3.3c-0.2,1.6,1,3.1,2.7,3.3c0.2,0,0.4,0,0.6,0c0.7,0,1.3-0.1,2-0.4c0.1-0.4,0.1-0.9,0-1.3C46.2,12.9,45.6,13,45,13
	c-1,0-1.6-0.4-1.8-1.4h3.9c0.1-0.3,0.1-0.6,0.1-0.9C47.2,8.8,46.1,7.7,44.5,7.8L44.5,7.8z M43.2,10.3c0-0.7,0.6-1.2,1.3-1.2
	c0.8,0,1.1,0.5,1.1,1.2H43.2z"/>
</svg>
