<?xml version="1.0" encoding="utf-8"?>
<!-- Generator: Adobe Illustrator 24.0.0, SVG Export Plug-In . SVG Version: 6.00 Build 0)  -->
<svg version="1.1" id="Layer_1" xmlns="http://www.w3.org/2000/svg" xmlns:xlink="http://www.w3.org/1999/xlink" x="0px" y="0px"
	 viewBox="0 0 273.8 68.5" style="enable-background:new 0 0 273.8 68.5;" xml:space="preserve">
<style type="text/css">
	.st0{fill:#B7B7B7;}
	.st1{fill:none;}
	.st2{fill:#CCCCCC;}
	.st3{opacity:0.1;}
</style>
<g id="Logo_base" transform="translate(-266 -2474)">
	<g id="Group_802" transform="translate(200.99 1145.191)">
		<g id="Group_801" transform="translate(163.597 1390.108)">
			<path id="Path_424" class="st0" d="M0,0.1h3c0.7,0,1.4,0.1,2,0.4c0.6,0.3,1,0.7,1.3,1.2c0.6,1.1,0.6,2.5,0,3.7C6,6,5.5,6.4,5,6.7
				C4.3,7,3.7,7.1,3,7.1H0V0.1z M2.9,6.2c0.5,0,1-0.1,1.5-0.3c0.4-0.2,0.8-0.5,1-0.9c0.5-0.9,0.5-1.9,0-2.8c-0.2-0.4-0.6-0.7-1-0.9
				C3.9,1.1,3.4,0.9,2.9,1H1v5.3L2.9,6.2z"/>
			<path id="Path_425" class="st0" d="M21.5,6.2v0.9h-5.1v-7h5V1h-4v2.2H21V4h-3.5v2.3L21.5,6.2z"/>
			<path id="Path_426" class="st0" d="M31.8,7c-0.4-0.1-0.8-0.3-1.2-0.6L31,5.5c0.3,0.3,0.7,0.5,1,0.6c0.4,0.1,0.9,0.2,1.3,0.2
				c0.5,0,0.9-0.1,1.3-0.3c0.3-0.2,0.4-0.5,0.4-0.8c0-0.2-0.1-0.4-0.2-0.6c-0.2-0.2-0.4-0.3-0.6-0.3c-0.2-0.1-0.6-0.2-1-0.3
				C32.8,4,32.4,3.8,32,3.7c-0.3-0.1-0.6-0.3-0.8-0.6c-0.2-0.3-0.4-0.7-0.3-1.1c0-0.4,0.1-0.7,0.3-1c0.2-0.3,0.5-0.6,0.9-0.7
				C32.5,0.1,33,0,33.5,0c0.4,0,0.8,0.1,1.2,0.2c0.4,0.1,0.7,0.2,1,0.5l-0.3,0.8c-0.3-0.2-0.6-0.3-0.9-0.4c-0.3-0.1-0.7-0.1-1-0.1
				c-0.4,0-0.9,0.1-1.3,0.3C32,1.3,31.8,1.6,31.8,2c0,0.2,0.1,0.4,0.2,0.6c0.2,0.2,0.4,0.3,0.6,0.4c0.3,0.1,0.6,0.2,1,0.3
				c0.4,0.1,0.9,0.2,1.3,0.4c0.3,0.1,0.6,0.3,0.8,0.6c0.2,0.3,0.4,0.7,0.3,1.1c0,0.4-0.1,0.7-0.3,1c-0.2,0.3-0.5,0.6-0.9,0.7
				c-0.5,0.2-1,0.3-1.5,0.3C32.8,7.2,32.3,7.1,31.8,7z"/>
			<path id="Path_427" class="st0" d="M45.6,0.1h1v7h-1V0.1z"/>
			<path id="Path_428" class="st0" d="M61.8,3.6h1v2.7c-0.4,0.3-0.8,0.5-1.2,0.7c-0.5,0.2-1,0.2-1.4,0.2c-0.7,0-1.3-0.2-1.9-0.5
				c-0.6-0.3-1-0.7-1.3-1.3c-0.7-1.1-0.7-2.6,0-3.7c0.3-0.5,0.8-1,1.3-1.3C58.7,0.1,59.4,0,60.1,0c0.5,0,1,0.1,1.5,0.3
				c0.4,0.2,0.8,0.5,1.2,0.8l-0.6,0.6c-0.5-0.5-1.3-0.8-2-0.8c-0.5,0-1,0.1-1.4,0.3c-0.4,0.2-0.8,0.6-1,1c-0.5,0.9-0.5,1.9,0,2.8
				c0.2,0.4,0.6,0.7,1,1c0.4,0.2,0.9,0.4,1.4,0.4c0.6,0,1.2-0.1,1.6-0.5L61.8,3.6z"/>
			<path id="Path_429" class="st0" d="M78.8,0.1v7H78l-4.2-5.2v5.2h-1v-7h0.8l4.2,5.2V0.1H78.8z"/>
			<path id="Path_430" class="st0" d="M95,7c-0.4-0.1-0.8-0.3-1.2-0.6l0.4-0.8c0.3,0.3,0.7,0.5,1,0.6c0.4,0.1,0.9,0.2,1.3,0.2
				c0.5,0,0.9-0.1,1.3-0.3c0.3-0.2,0.4-0.5,0.4-0.8c0-0.2-0.1-0.4-0.2-0.6c-0.2-0.2-0.4-0.3-0.6-0.3c-0.2-0.1-0.6-0.2-1-0.3
				C96,4,95.6,3.8,95.2,3.7c-0.3-0.1-0.6-0.3-0.8-0.6C94.1,2.8,94,2.4,94,2c0-0.4,0.1-0.7,0.3-1c0.2-0.3,0.5-0.6,0.9-0.7
				c0.5-0.2,1-0.3,1.5-0.3c0.4,0,0.8,0.1,1.2,0.2c0.4,0.1,0.7,0.2,1,0.5l-0.3,0.8C98.3,1.2,98,1.1,97.7,1c-0.3-0.1-0.7-0.1-1-0.1
				c-0.4,0-0.9,0.1-1.3,0.3C95.1,1.3,95,1.6,95,2c0,0.2,0.1,0.4,0.2,0.6c0.2,0.2,0.4,0.3,0.6,0.4c0.3,0.1,0.6,0.2,1,0.3
				c0.4,0.1,0.9,0.2,1.3,0.4c0.3,0.1,0.6,0.3,0.8,0.6c0.2,0.3,0.4,0.7,0.3,1.1c0,0.4-0.1,0.7-0.3,1c-0.2,0.3-0.5,0.6-0.9,0.7
				c-0.5,0.2-1,0.3-1.5,0.3C96,7.2,95.5,7.1,95,7z"/>
			<path id="Path_431" class="st0" d="M111.5,4.7v2.4h-1V4.7l-2.8-4.6h1.1l2.3,3.7l2.3-3.7h1L111.5,4.7z"/>
			<path id="Path_432" class="st0" d="M124,7c-0.4-0.1-0.8-0.3-1.2-0.6l0.4-0.8c0.3,0.3,0.7,0.5,1,0.6c0.4,0.1,0.9,0.2,1.3,0.2
				c0.5,0,0.9-0.1,1.3-0.3c0.3-0.2,0.4-0.5,0.4-0.8c0-0.2-0.1-0.4-0.2-0.6c-0.2-0.2-0.4-0.3-0.6-0.3c-0.2-0.1-0.6-0.2-1-0.3
				c-0.4-0.1-0.9-0.2-1.3-0.4c-0.3-0.1-0.6-0.3-0.8-0.6c-0.2-0.3-0.4-0.7-0.3-1.1c0-0.4,0.1-0.7,0.3-1c0.2-0.3,0.5-0.6,0.9-0.7
				c0.5-0.2,1-0.3,1.5-0.3c0.4,0,0.8,0.1,1.2,0.2c0.4,0.1,0.7,0.2,1,0.5l-0.3,0.8c-0.3-0.2-0.6-0.3-0.9-0.4c-0.3-0.1-0.7-0.1-1-0.1
				c-0.4,0-0.9,0.1-1.3,0.3C124.1,1.3,124,1.6,124,2c0,0.2,0.1,0.4,0.2,0.6c0.2,0.2,0.4,0.3,0.6,0.4c0.3,0.1,0.6,0.2,1,0.3
				c0.4,0.1,0.9,0.2,1.3,0.4c0.3,0.1,0.6,0.3,0.8,0.6c0.2,0.3,0.4,0.7,0.3,1.1c0,0.4-0.1,0.7-0.3,1c-0.2,0.3-0.5,0.6-0.9,0.7
				c-0.5,0.2-1,0.3-1.5,0.3C125,7.2,124.5,7.1,124,7z"/>
			<path id="Path_433" class="st0" d="M139.2,1h-2.4V0.1h5.8V1h-2.4v6.2h-1L139.2,1z"/>
			<path id="Path_434" class="st0" d="M156.9,6.2v0.9h-5.1v-7h5V1h-4v2.2h3.5V4h-3.5v2.3L156.9,6.2z"/>
			<path id="Path_435" class="st0" d="M173.2,7.1l0-5.1l-2.5,4.3h-0.5L167.6,2v5.1h-1v-7h0.8l2.9,4.9l2.9-4.9h0.8l0,7L173.2,7.1z"/>
		</g>
		<g id="Grupo_63" transform="translate(162.541 1328.809)">
			<path id="Caminho_28" class="st0" d="M12.5,42c-1.2,0.1-2.3-0.1-3.4-0.4V23.4c1.6-0.8,3.5-1.1,5.3-1c4.5,0,6.9,3.1,6.9,9.1
				C21.3,37.7,18.4,42,12.5,42 M15.9,14.8c-2.3,0-4.7,0.4-6.8,1.4V0C6.4,1,3.8,2.3,1.5,4.1c-1,0.8-1.6,2-1.5,3.3v40.1
				c3.9,1.3,7.9,2,12,1.9c11.8,0,18.6-7.2,18.6-17.7C30.6,21.3,25.8,14.8,15.9,14.8"/>
			<path id="Caminho_29" class="st0" d="M65.1,42.3c-4.2,0-6.4-1.2-6.4-4.2s2.3-4.1,6.4-4.1c1.4,0,3,0.1,3.9,0.2v7.7
				C67.7,42.1,66.4,42.3,65.1,42.3 M63.5,14.7c-3.3-0.1-6.6,0.3-9.8,1.1c-0.5,2.4-0.5,4.8,0,7.2c2.7-0.7,5.5-1,8.3-0.9
				c4.7,0,6.9,1.9,6.9,5.8v0.4c-1.4-0.1-3.1-0.3-4.2-0.3c-7.8,0-14.4,2.8-14.4,10.2c0,8.4,6,11.3,14.7,11.3c4.3,0,8.6-0.7,12.7-2
				V28.5C77.7,19.4,72.8,14.9,63.5,14.7"/>
			<path id="Caminho_30" class="st0" d="M117.3,29l-3.7-1.5c-2.1-0.9-3.4-1.6-3.4-3c0-2.1,1.9-2.6,4.4-2.6c2.9,0,5.8,0.5,8.6,1.4
				c0.4-2.2,0.4-4.6,0-6.8c-2.2-1.2-6.3-1.8-9.9-1.8c-7,0-12.4,3.8-12.4,9.5c0,5.1,2.2,7.7,8.3,10.2l2.9,1.2
				c2.7,1.1,3.5,1.8,3.5,3.5c0,2.6-2.6,3.1-4.8,3.1c-3.4,0-6.8-0.7-9.9-2c-0.6,2.3-0.6,4.8,0,7.1c3,1.6,7.1,2.1,11.4,2.1
				c6.9,0,12.5-3.7,12.5-10.2C124.8,33.7,122.5,31.2,117.3,29"/>
			<path id="Caminho_31" class="st0" d="M155.3,28.1c0.7-4,3.1-6.4,6.7-6.4c4.1,0,5.7,2.8,5.9,6.4H155.3z M162.2,14.7
				c-9.8,0-15.8,6.6-15.8,17.6s6.4,17.1,17.3,17.1c3.5,0.1,7-0.6,10.3-1.9c0.5-2.3,0.5-4.7,0-7c-3,1-6.2,1.5-9.4,1.5
				c-5,0-8.6-1.9-9.3-7.2h20.6c0.3-1.5,0.4-3.1,0.4-4.6C176.3,20.3,170.7,14.7,162.2,14.7"/>
		</g>
	</g>
	<g id="Group_804" transform="translate(-60.017 1395.98)">
		<g id="Group_803" transform="translate(327.91 1086.978)">
			<path id="Path_436" class="st1" d="M34.9,20.9c-2.1,0.6-4.2,0.9-6.3,1c-0.2,2.1-0.5,4.2-1,6.3c2.1-0.6,4.2-0.9,6.3-1
				C34,25,34.3,22.9,34.9,20.9z"/>
			<path id="Path_437" class="st2" d="M0.8,2.7c0.5,1.4,1,2.7,1.7,4c1.3,2.4,2.8,4.7,4.6,6.7c3.6,3.7,8.1,6.2,13,7.5
				c0-0.2,0-0.3,0-0.6c0-2.7-0.5-5.4-1.6-7.8c-2.9-1.3-5.4-3.3-7.4-5.8c-1.2-1.5-2.2-3.2-3-5L8.2,1.4C5.6,0.5,2.8,0,0,0
				C0,0,0.8,2.7,0.8,2.7z"/>
			<path id="Path_438" class="st2" d="M54.3,47.5c-2.3-0.9-4.4-2.2-6.2-3.8c-2-1.9-3.6-4.1-4.8-6.5c-2.5-1.1-5.2-1.7-8-1.7
				c-0.2,0-0.4,0-0.6,0c0,0,0.9,2.9,1,3.1c0.4,1,0.9,2,1.4,3c1.1,1.9,2.4,3.7,3.9,5.4c3.1,3.4,6.9,6,11.2,7.6c1.2,0.4,2,0.6,3.4,1
				c0-2.6-0.4-5.1-1.2-7.6C54.5,48,54.3,47.5,54.3,47.5z"/>
		</g>
		<path id="Path_439" class="st0" d="M328.9,1085.7c11.4,0.8,20.2,10.2,20.2,21.6c0,6.9-4.3,12.8-8.9,17.5c-4.2,4.4-8.7,8.5-13,12.8
			c-1.5,1.5-1.5,4,0,5.5c0.2,0.2,0.3,0.3,0.5,0.4c1.7,1.2,4,1,5.4-0.5c4.8-4.8,9.6-9.7,14.5-14.5c2.3-2.2,4.3-4.1,7.2-5.3
			c2.7-1.1,5.5-1.7,8.4-1.7c11.8-0.1,21.5,9.3,21.6,21.1c0,0.1,0,0.1,0,0.2l0,0c2,0.5,4,0.7,6,0.4l0.1,0c0,0,0.8-10.2-6-18.6
			c0,0-0.6-0.7-0.6-0.7c-3.6-4.3-8.4-7.5-13.8-9c-0.2,0-0.3-0.1-0.5-0.1c-0.2,0-0.3-0.1-0.5-0.1c0-0.1,0-0.3,0-0.4
			c0-0.8,0.3-2.7,0.4-2.9c0.2-1.2,0.5-2.4,1-3.5c0.6-1.7,1.5-3.4,2.6-4.9c0.7-0.9,1.5-1.8,2.3-2.7l14.7-14.7c1.5-1.5,1.5-4,0-5.5
			c-0.2-0.2-0.3-0.3-0.5-0.4c-1.7-1.2-4-1-5.4,0.5l-14,14c-1.9,1.9-4.1,3.4-6.5,4.6c-2.5,1.2-5.2,1.9-8,2c-0.1,0-0.3,0-0.4,0
			c0,0-1-3.4-1.1-3.7c-0.5-1.3-1.1-2.6-1.8-3.8c-2.9-5.2-7.7-8.8-13-11.4c-4-1.8-8.3-2.6-12.7-2.4c0,2.1,0.1,4.1,0.4,6.2
			C328.1,1085.7,328.5,1085.7,328.9,1085.7z M355.5,1115.1c0.4-2.1,0.8-4.2,1-6.3c2.1-0.1,4.2-0.4,6.3-1c-0.6,2.1-0.9,4.2-1,6.3
			C359.7,1114.2,357.5,1114.6,355.5,1115.1L355.5,1115.1z"/>
	</g>
</g>
</svg>
