<svg id="Layer_1" data-name="Layer 1" xmlns="http://www.w3.org/2000/svg" viewBox="0 0 29.88 29.87"><title>Logo_Twitter</title><g id="twitter"><g id="Group_836" data-name="Group 836"><g id="Group_835" data-name="Group 835"><path id="Path_457" data-name="Path 457" d="M19.29,18.63H15.83c-1.88,0-1.88-.78-1.88-1.3,0-.31,0-.84,0-1.43h4.84c1.72,0,3.47-1,3.47-3,0-2.1-1.15-3.63-2.74-3.63H14.06C14,7.58,13.48,5,10.74,5A3,3,0,0,0,7.85,7.07a10.5,10.5,0,0,0-.36,3.61V12c0,.44,0,.88,0,1.33l0,3.88A7.45,7.45,0,0,0,14,24.68l2.85,0,2.14,0c3.15,0,3.4-2.16,3.4-2.83a3.07,3.07,0,0,0-2.83-3.29ZM19,22.83l-2.1,0-2.89,0a5.54,5.54,0,0,1-4.56-5.51V13.33c0-.43,0-.87,0-1.3l0-1.38a9.24,9.24,0,0,1,.26-3,1.07,1.07,0,0,1,1.07-.8c.87,0,1.4.57,1.42,3.39a1,1,0,0,0,1,1h6.43c.39,0,.82.65.82,1.7s-1.54,1-1.55,1H13.05a1,1,0,0,0-1,.93c0,.95-.06,2-.06,2.43,0,1,.38,3.23,3.82,3.23h3.45c.36,0,1.18.13,1.18,1.37,0,.34,0,.9-1.47.9Z" style="fill:#b7b7b7"/><path id="Path_458" data-name="Path 458" d="M21.83,0H8.05A8.06,8.06,0,0,0,0,8.05V21.83a8.06,8.06,0,0,0,8.05,8H21.82a8.06,8.06,0,0,0,8.06-8V8.05A8.06,8.06,0,0,0,21.83,0ZM28,21.83A6.15,6.15,0,0,1,21.83,28H8.05a6.13,6.13,0,0,1-6.12-6.12V8.05A6.12,6.12,0,0,1,8.05,1.93H21.83A6.13,6.13,0,0,1,28,8.05Z" style="fill:#b7b7b7"/></g></g></g></svg>